<svg xmlns="http://www.w3.org/2000/svg" width="120" height="120" viewBox="0 0 1000 1000">
  <defs>
    <style>
      svg { cursor: pointer; }
      .cls-1 {
        fill: #c1c1c1;
        fill-rule: evenodd;
      }
    </style>
  </defs>
  <path id="onnus-exchange" class="cls-1" d="M950,217H50V90c2.88-11.584,9.589-23.775,18-30,14.793-10.948,37.483-10,64-10H865c27.268,0,51.75-1.3,67,10,8.393,6.221,15.148,18.417,18,30V217ZM418,135c-7.6,5.645-15.173,7.558-18,18-5.128,18.94,12.919,37.522,32,32,10.945-3.167,24.132-17.943,17-35C444.313,138.792,434.846,134.43,418,135Zm75,0c-7.6,5.645-15.173,7.558-18,18-5.128,18.94,12.919,37.522,32,32,10.945-3.167,24.132-17.943,17-35C519.313,138.792,509.846,134.43,493,135Zm75,0c-7.6,5.645-15.173,7.558-18,18-5.128,18.94,12.919,37.522,32,32,10.945-3.167,24.132-17.943,17-35C594.313,138.792,584.846,134.43,568,135ZM50,267H950V876c0,15.1,1.581,33.127-3,44-7.084,16.815-22.894,30.072-47,30V678c0-49,4.775-107.1-7-146-21.19-70-72.956-113.335-146-132-18.024-4.606-39.8-2.963-61-3v-2c5.189-1.937,8.328-8.327,12-12,7.413-7.415,31.09-28.056,34-37-11.763-7.706-19.05-20.718-30-29a173.414,173.414,0,0,1-22-20c-8.4,3.033-20.563,21.236-27,28-23.769,24.977-51.128,48.371-72,76-6.524,8.636-29.844,24.724-32,35,7.7,5.113,12.893,13.215,19,20,12.3,13.669,26.778,25.147,38,40l17,16c12.84,13.491,26.757,27.119,38,42,5.031,6.658,13.28,10.894,18,18h1v-1c12.673-8.27,22.173-21.7,33-32,5.978-5.689,16.025-10.642,19-19-6.43-4.245-11.363-10.861-16-17-8.487-11.234-22.094-19.053-30-31a14.124,14.124,0,0,1,4-1c8.295,3.148,30.23-1.464,40,1,34.923,8.806,60.706,23.9,78,50,22.255,33.587,18,86.194,18,142V950H721c-8.464,0-34.813,2.224-40-1h2c5.747-5.581,13.911-7.653,21-12,14.1-8.643,28.982-18.269,43-27,7.315-4.557,21.469-7.984,25-16,2.068-3.344,1-11.909,1-17V675h-1c-3.786,4.568-9.795,5.766-15,9-14.267,8.865-29.345,16.891-44,26-47.991,29.83-97.867,58.412-146,88-15.812,9.719-32.009,18.084-47,28-4.407,2.915-15.732,5.379-18,10V950H466V835c-7.7-2.327-13.585-8.56-20-12-11.788-6.322-22.788-11.04-34-18-4.985-3.1-9.2-7.619-16-9v1c2.3,3.667,1,13.5,1,19v47a14.124,14.124,0,0,1-4,1c-5.149-6.208-30.686-15.206-33-20V774c-6.668-1.686-11.706-6.76-17-10-12.932-7.914-25.6-13.7-39-21-7.748-4.22-14.848-11.287-24-14v1c3.862,6.3,1,40.748,1,51V900c0,14.524-3.435,39.3,2,50H232V518c34.3-15.767,61.081-38.152,72-77,18.812-66.933-26.8-115.337-69-133-11.36-4.755-32.417-12.16-51-8-51.5,11.529-82.395,35.218-98,82l-2,19c-9.348,42.842,20.139,81.8,42,98,8.915,6.607,18.755,16.017,32,18V950c-39.514.3-81.279,4.6-98-18-10.946-14.794-10-37.482-10-64V267ZM188,374c22.919-.583,36.422,7.695,43,23,11.145,25.931-9.212,48.239-27,53-24.871,6.657-54.974-18.4-47-47,3.24-11.62,12.488-22.624,23-27C182.7,374.878,185.868,375.36,188,374ZM568,556c-8.337,9.782-33.922,19.409-46,27-46.415,29.171-95.263,57.283-142,86-14.759,9.069-29.775,17.041-44,26-6.009,3.784-14.687,5.578-19,11-0.251.968-.784,0.379,0,1,7.257,6.815,17.973,9.986,27,15,10.543,5.856,22.194,18.49,36,20,3.927-3.773,9.169-5,14-8,14.219-8.838,29.323-16.879,44-26,44.714-27.788,91.139-54.432,136-82,14.751-9.065,29.69-17.2,44-26,4.849-2.983,10.072-4.216,14-8-13.474-7.538-27.554-14.684-41-23C584.128,564.75,577.017,557.611,568,556Zm98,57c-7.975,7.661-20.328,11.083-30,17-20.357,12.455-42.126,23.279-63,36-27.07,16.5-56,32.4-83,49-7.84,4.821-16.153,7.19-24,12-11.133,6.825-23.349,12.861-35,20-6.873,4.211-13.674,10.294-22,13,1.021,0.8.274,0.355,2,1,3.866,3.954,9.049,4.974,14,8,12.861,7.86,26.714,14.808,40,23,2.647,1.633,17.393,12.5,20,12,2.751-.532,19.321-12.717,23-15,17.275-10.717,35.2-20.534,52-31,34.941-21.765,70.852-39.459,106-61,23.264-14.258,46.4-31.786,72-43v-1c-9.843-4.737-18.781-11.963-28-17-7.621-4.164-14.666-6.506-22-11C681.361,620.932,675.291,614.175,666,613Z" transform="translate(-0.125 -0.344)"/>
</svg>
