<svg xmlns="http://www.w3.org/2000/svg" width="120" height="120" viewBox="0 0 1000 1000">
  <defs>
    <style>
      svg { cursor: pointer; }
      .cls-1 {
        fill: #c1c1c1;
        fill-rule: evenodd;
      }
    </style>
  </defs>
  <path id="icon-app" class="cls-1" d="M90,50H859c28.715,0,56.832-1.984,73,10,18.319,13.579,18,37.489,18,70V869c0,32.816.514,57.295-18,71-14.791,10.949-37.484,10-64,10H137c-39.33,0-64.248,2.135-80-22-9.253-14.177-7-40.583-7-64V133c0-17.388-2.387-40.191,3-53,4.8-11.412,15.585-22.2,27-27C83.521,51.52,87.2,51.962,90,50Zm10,50V217H900V100H100Zm318,35c16.729-.58,26.469,3.775,31,15,6.865,17-5.826,31.976-17,35-18.937,5.125-37.527-12.919-32-32C403.038,142.512,410.325,140.777,418,135Zm75,0c16.729-.58,26.469,3.775,31,15,6.865,17-5.826,31.976-17,35-18.937,5.125-37.527-12.919-32-32C478.038,142.512,485.325,140.777,493,135Zm75,0c16.729-.58,26.469,3.775,31,15,6.865,17-5.826,31.976-17,35-18.937,5.125-37.527-12.919-32-32C553.038,142.512,560.325,140.777,568,135ZM100,267V900H900V267H100Z" transform="translate(0.11 0.031)"/>
</svg>
