<svg xmlns="http://www.w3.org/2000/svg" width="23" height="23" viewBox="0 0 1000 1000">
  <defs>
    <style>
      svg { cursor: pointer; }
      .cls-1 {
        fill: #c1c1c1;
        fill-rule: evenodd;
      }
    </style>
  </defs>
  <path id="icon-app-venders" class="cls-1" d="M610,48H811c48.017,0,84.49-2.475,112,18,26.824,19.965,27,58.534,27,106V346c0,44.974-1.6,80.122-27,99-31.66,23.531-86.223,18-141,18H658c-47.11,0-85.2-.366-105-27-19.186-25.813-18-56.791-18-102V181c0-31.2-3.853-70.493,8-91,8.018-13.871,20.933-28.364,36-35C586.311,51.78,604.265,51.527,610,48ZM124,49H325c48.017,0,84.49-2.475,112,18,26.824,19.965,27,58.534,27,106V347c0,44.974-1.6,80.122-27,99-31.66,23.531-86.223,18-141,18H172c-47.11,0-85.2-.366-105-27-19.186-25.813-18-56.791-18-102V182c0-31.2-3.853-70.493,8-91,8.017-13.871,20.933-28.364,36-35C100.311,52.78,118.265,52.527,124,49ZM605,99c-7.162,6.667-15.61,8.305-19,19V328c0,23.761-4.808,61.884,6,76,9.848,12.861,46.944,8,69,8H825c21.809,0,53.283,3.738,66-6,12.1-9.263,8-41.091,8-62V172c0-21.719,4.652-57.338-8-67-14.7-11.226-55.447-6-80-6H605ZM124,535H325c48.017,0,84.49-2.475,112,18,26.824,19.965,27,58.534,27,106V833c0,44.974-1.6,80.122-27,99-31.66,23.531-86.223,18-141,18H172c-47.11,0-85.2-.366-105-27-19.186-25.813-18-56.791-18-102V668c0-31.2-3.853-70.493,8-91,8.017-13.871,20.933-28.364,36-35C100.311,538.78,118.265,538.527,124,535Zm486,0H811c48.017,0,84.49-2.475,112,18,26.824,19.965,27,58.534,27,106V833c0,44.974-1.6,80.122-27,99-31.66,23.531-86.223,18-141,18H658c-47.11,0-85.2-.366-105-27-19.186-25.813-18-56.791-18-102V668c0-31.2-3.853-70.493,8-91,8.018-13.871,20.933-28.364,36-35C586.311,538.78,604.265,538.527,610,535ZM119,586c-7.162,6.667-15.61,8.3-19,19V815c0,23.761-4.808,61.884,6,76,9.848,12.861,46.944,8,69,8H339c21.809,0,53.283,3.738,66-6,12.1-9.263,8-41.091,8-62V659c0-21.719,4.652-57.338-8-67-14.7-11.226-55.447-6-80-6H119Zm486,0c-7.162,6.667-15.61,8.3-19,19V815c0,23.761-4.808,61.884,6,76,9.848,12.861,46.944,8,69,8H825c21.809,0,53.283,3.738,66-6,12.1-9.263,8-41.091,8-62V659c0-21.719,4.652-57.338-8-67-14.7-11.226-55.447-6-80-6H605Z" transform="translate(0.797 0.766)"/>
</svg>
