<svg xmlns="http://www.w3.org/2000/svg" width="23" height="23" viewBox="0 0 1000 1000">
  <defs>
    <style>
      svg { cursor: pointer; }
      .cls-1 {
        fill: #c1c1c1;
        fill-rule: evenodd;
      }
    </style>
  </defs>
  <path id="icon-label" class="cls-1" d="M470,50c24.572-.441,60.977-2.884,82,2,38.841,9.023,74.78,12.277,108,26,120.383,49.73,205.206,130.612,256,250,9.382,22.051,16.9,46.928,24,72,5.154,18.215,4.676,38.138,9,57,3.022,13.182,2.925,60.05,0,73-3.984,17.635-.761,33.676-5,50-8.717,33.571-15.309,65.731-28,95C862.634,798.076,774.388,874.507,649,926c-25.107,10.311-53.683,13.15-82,20l-37,4c-10.225,2.329-51.092,1.015-60-1-17.574-3.975-33.638-.755-50-5-35.756-9.277-68.881-17.807-99-31C214.661,866.419,133.594,787.992,87,682c-8.419-19.151-13.1-37.849-20-59-6.255-19.163-8.928-41.494-14-63l-2-30c-2.837-13.18-2.968-46.861,0-60l2-30c7.311-31.014,9.842-61.846,21-89C125.726,225.124,201.405,137.615,325,84c29.252-12.689,61.422-19.353,95-28Zm15,75-47,4c-27.606,6.611-51.51,11.035-75,21C250.063,197.911,188.909,269.907,142,384c-21.665,52.694-22.914,159.472-4,216,42.246,126.264,109.443,200.085,228,250,22.8,9.6,44.548,14.407,72,21l30,3h17c7.627,1.656,22.376,1.742,30,0h19c23.941-5.482,48.849-4.929,70-12,122.922-41.1,201.988-118.847,250-235,30.391-73.523,25.5-191.721-4-261C799.369,247.08,717.79,170.358,586,133,558.714,125.265,518.7,125.042,485,125Zm4,91,29,1c49.87,12.945,99.658,66.968,71,133-13.786,31.764-40.251,49.693-78,58-16.993,3.739-35.7-2.655-46-7-30.161-12.721-71.112-51.291-60-100,1.933-8.472,1.083-14.745,4-22,9.8-24.376,29.02-45.9,53-56C469.154,219.985,482.784,219.883,489,216Zm3,50-12,4c-10.751,5.411-20.988,16.951-25,29-10.916,32.788,25.107,69.291,58,58,16.974-5.827,41.635-29.929,32-58C537.791,278,521.378,265.441,492,266ZM281,500H652c49.726,0,86.217-6.809,104,27,3.5,6.649,8.934,18.591,6,31-11.773,49.795-54.515,42-114,42H309c-13.806,0-29.116,1.16-39-3-25.365-10.676-42.934-48-22-77,4.682-6.486,14.235-13.754,22-17C273.622,501.486,277.973,501.985,281,500Zm49,159H621c44.851,0,70.134-3.167,86,27,3.5,6.649,8.935,18.591,6,31-11.529,48.745-51.611,42-110,42H414c-31.146,0-83.539,5.154-103-7-20.69-12.922-31.983-48.087-14-73,4.682-6.486,14.236-13.755,22-17C322.622,660.486,326.973,660.985,330,659Z" transform="translate(-0.031 -0.125)"/>
</svg>
