<svg xmlns="http://www.w3.org/2000/svg" width="23" height="23" viewBox="0 0 1000 1000">
  <defs>
    <style>
      svg { cursor: pointer; }
      .cls-1 {
        fill: #c1c1c1;
        fill-rule: evenodd;
      }
    </style>
  </defs>
  <path id="onnus-browser" class="cls-1" d="M950,288H438c-4.121-6.239-10.782-10.782-16-16l-35-35c-6.522-6.522-13.137-17.249-23-20H50V90c2.88-11.584,9.589-23.775,18-30,14.793-10.948,37.483-10,64-10H865c27.268,0,51.75-1.3,67,10,19.237,14.26,18,40.971,18,75V288ZM418,135c-7.6,5.645-15.173,7.558-18,18-5.128,18.94,12.919,37.522,32,32,10.945-3.167,24.132-17.943,17-35C444.313,138.792,434.846,134.43,418,135Zm75,0c-7.6,5.645-15.173,7.558-18,18-5.128,18.94,12.919,37.522,32,32,10.945-3.167,24.132-17.943,17-35C519.313,138.792,509.846,134.43,493,135Zm75,0c-7.6,5.645-15.173,7.558-18,18-5.128,18.94,12.919,37.522,32,32,10.945-3.167,24.132-17.943,17-35C594.313,138.792,584.846,134.43,568,135ZM50,268H344c3.642,5.5,9.4,9.4,14,14l30,30c6.29,6.29,13,16.894,21,21,11.91,6.113,32.881,4,50,4H950V872c0,25.446.481,45.86-10,60-19.569,26.4-88.895,18.233-135,18-1.464-4.15-3.35-3.572-4-9-3.966-6.308,4.245-17.715,6-23,6.783-20.427,10.417-42.744,11-68,18.95-12.3,41.485-22,61-34,6.3-3.878,17.992-5.176,21-12,5.986-6.131,2.23-26.185,0-35-7.121-28.149-10.071-53.918-20-78-3.467-8.409-3.607-20.68-13-23-8.416-5.82-24.535-1.077-37-3a371.421,371.421,0,0,0-55-4c-16.462-25.95-34.948-50.607-57-71,0.953-33.4,16.861-61.492,15-95-6.756-3.888-12.558-9.9-19-14-21.516-13.7-44.924-24.223-70-34-6.2-2.417-28.593-14.1-37-9-8.467,3.055-16.8,16.084-22,23-2.033,2.7-5.673,4.552-8,7-11.382,11.972-21.8,24.915-33,37-22.74,0-45.162-1.941-68-1-7.16.3-21.928,4.062-27,1-1.909-1.152-.775-3.987-2-6l-12-11v-3l-4-2c-3.17-3.859-4.984-7.947-8-12-4.736-6.364-12.218-11.6-17-18-6.751-9.029-8.75-18.012-25-18-9.107,5.829-21.349,5.944-32,10-26.608,10.133-66.08,29.853-85,48-0.191,16.068,3.476,34.774,7,50q0.5,9,1,18c1.5,6.182,8.258,20.889,4,28-2.66,7.393-12.06,12.45-17,18-9.092,10.215-19.361,21.818-27,33-3.1,4.535-7.4,16.931-11,20-3.409,2.9-11.743,2.1-18,2-3.749,2.281-13.435.974-19,1-12.187.058-25.537,1-39,1-5.306,0-14.481-1.178-18,1-11.516,3.9-12.978,19.435-17,31-8.239,23.692-14.966,48.311-18,78-0.872,8.532-4.427,17.145-1,26,11.756,5.926,23.542,15.633,35,22,5.9,3.28,11.191,3.67,17,7,2.526,1.448,5.244,5.483,8,7,6.024,3.317,21.6,8.152,24,14,5.139,8.278,1.486,23.451,4,34,2.229,9.351,6.234,21.845,9,30q0.5,5,1,10c2.167,5.613,6.21,11.554,7,19l-5,7H90c-2.8-1.959-6.481-1.515-10-3-11.4-4.811-22.212-15.576-27-27-5.466-13.043-3-36.347-3-54V268ZM332,704h3c0.372-2.076.242-1.924,1-3,6.3-14.646,25.629-25.694,37-36,29.284-26.543,97.142-55.583,154-41,9.085,2.33,14.979.252,23,3,74.7,25.6,122.7,67.919,145,146,4.363,15.272,11.721,40.413,7,61q0.5,7,1,14c-5.919,29.945-13.534,57.042-27,79-3.35,5.463-9.179,20.114-14,23H334c-4.088-11.218-14.851-21.008-20-32-13.892-29.656-29.143-83.957-18-128,4.84-19.129,10.251-44.286,20-59C320.449,724.285,330.541,712.3,332,704Zm154,45c-3.107,1.993-6.65.693-11,2a85.792,85.792,0,0,0-18,8c-16.289,10.524-30.345,29.13-36,50-3.066,11.314-.151,25.145,2,33v9c7.428,22.715,26.415,39.814,49,48,7.592,2.752,22.628,9.071,35,6,27.194-6.751,51.87-20.78,62-44,23.323-53.463-10.808-100.28-55-112H486Z" transform="translate(0.25 -0.656)"/>
</svg>
