<svg xmlns="http://www.w3.org/2000/svg" width="120" height="120" viewBox="0 0 1000 1000">
  <defs>
    <style>
      svg { cursor: pointer; }
      .cls-1 {
        fill: #c1c1c1;
        fill-rule: evenodd;
      }
    </style>
  </defs>
  <path id="onnus-messenger" class="cls-1" d="M950,217H50V90c2.88-11.584,9.589-23.775,18-30,14.793-10.948,37.483-10,64-10H865c27.268,0,51.75-1.3,67,10,8.393,6.221,15.148,18.417,18,30V217ZM418,135c-7.6,5.645-15.173,7.558-18,18-5.128,18.94,12.919,37.522,32,32,10.945-3.167,24.132-17.943,17-35C444.313,138.792,434.846,134.43,418,135Zm75,0c-7.6,5.645-15.173,7.558-18,18-5.128,18.94,12.919,37.522,32,32,10.945-3.167,24.132-17.943,17-35C519.313,138.792,509.846,134.43,493,135Zm75,0c-7.6,5.645-15.173,7.558-18,18-5.128,18.94,12.919,37.522,32,32,10.945-3.167,24.132-17.943,17-35C594.313,138.792,584.846,134.43,568,135ZM50,267H950V869c0,22.225,1.732,45.648-7,59-15.924,24.348-41.328,22-81,22H132c-26.509,0-49.219.956-64-10-18.319-13.579-18-37.489-18-70V267Zm84,69c-2.808,1.951-6.48,1.513-10,3-11.4,4.817-22.216,15.572-27,27-5.462,13.048-3,36.343-3,54v99c0,25.17-.361,45.024,10,59,6.222,8.393,18.416,15.148,30,18H611c55.47,0,113.068,10.433,130-30,5.74-13.707,3-38.581,3-57V376c-2.881-11.584-9.588-23.775-18-30-14.151-10.472-34.545-10-60-10H134Zm32,68H649c17.946,0,30.319-.7,39,8,4.527,4.536,11.254,13.329,8,25-2.515,9.019-10.958,17.515-20,20H166c-14.481-4.066-27.58-24.882-16-42C153.82,409.354,160.592,408.155,166,404Zm1,87H426c32.358,0,62.668-6.684,72,18,1.177,3.114,3.566,10.262,2,16-7.956,29.144-49.279,21-85,21H167c-14.166-3.892-29.041-23.481-18-42C153.327,496.742,160.412,496.013,167,491ZM305,629c-2.808,1.951-6.48,1.513-10,3-11.4,4.817-22.216,15.572-27,27-5.462,13.048-3,36.343-3,54v99c0,25.17-.361,45.024,10,59,6.222,8.393,18.416,15.148,30,18H782c55.47,0,113.068,10.433,130-30,5.74-13.707,3-38.581,3-57V669c-2.881-11.584-9.588-23.775-18-30-14.151-10.472-34.545-10-60-10H305Zm30,61H818c17.946,0,30.319-.7,39,8,4.527,4.536,11.254,13.329,8,25-2.515,9.019-10.958,17.515-20,20H335c-14.481-4.066-27.58-24.882-16-42C322.82,695.354,329.592,694.155,335,690Zm1,87H595c32.358,0,62.668-6.684,72,18,1.177,3.114,3.566,10.262,2,16-7.956,29.144-49.279,21-85,21H336c-14.166-3.892-29.041-23.481-18-42C322.327,782.742,329.412,782.013,336,777Z" transform="translate(0.078 0)"/>
</svg>
