<svg xmlns="http://www.w3.org/2000/svg" width="23" height="23" viewBox="0 0 1000 1000">
  <defs>
    <style>
      svg { cursor: pointer; }
      .cls-1 {
        fill: #ccc;
        fill-rule: evenodd;
      }
    </style>
  </defs>
  <path id="icon-close" class="cls-1" d="M48,50H265c77.992,77.659,155.927,155.333,235,233h0c77.326-77.326,157.674-155.674,235-233l217,1-1,1C801.348,200.985,649.652,351.015,500,500h0C649.985,649.318,803.015,800.682,953,950H736c-77.992-77.659-158.008-155.341-236-233h0c-77.326,77.326-156.674,155.674-234,233L49,949l1-1C199.652,799.015,350.348,648.985,500,500,349.682,349.682,198.318,200.318,48,50Z" transform="translate(-0.5)"/>
</svg>
