<svg xmlns="http://www.w3.org/2000/svg" width="23" height="23" viewBox="0 0 1000 1000">
  <defs>
    <style>
      svg { cursor: pointer; }
      .cls-1 {
        fill: #ccc;
        fill-rule: evenodd;
      }
    </style>
  </defs>
  <path id="icon-browser" class="cls-1" d="M470,50c24.572-.441,60.977-2.884,82,2,38.841,9.023,74.78,12.277,108,26,120.383,49.73,205.206,130.612,256,250,9.382,22.051,16.9,46.928,24,72,5.154,18.215,4.676,38.138,9,57,3.022,13.182,2.925,60.05,0,73-3.984,17.635-.761,33.676-5,50-8.717,33.571-15.309,65.731-28,95C862.634,798.076,774.388,874.507,649,926c-25.107,10.311-53.683,13.15-82,20l-37,4c-10.225,2.329-51.092,1.015-60-1-17.574-3.975-33.638-.755-50-5-35.756-9.277-68.881-17.807-99-31C214.661,866.419,133.594,787.992,87,682c-8.419-19.151-13.1-37.849-20-59-6.255-19.163-8.928-41.494-14-63l-2-30c-2.837-13.18-2.968-46.861,0-60l2-30c7.311-31.014,9.842-61.846,21-89C125.726,225.124,201.405,137.615,325,84c29.252-12.689,61.422-19.353,95-28ZM262,251v62H403c8.32,0,50.05,1.156,52,0h1v-1h-1c-1.886-5.967-6.9-9.379-10-14-6.813-10.155-13.415-20.146-20-30-2.81-4.2-6.556-14.882-11-17H262Zm0,116V711h61c2.052-6.246,1-17.068,1-25V450c5.166-7.259,5.863-14.774,14-19,5.624-2.921,16.509-3.41,23-2,10.684,2.321,24.666-.874,34-1,9.91-.134,23.785,3.386,35,1,10.4-2.213,26.042,2.761,39,0,10.4-2.216,26.043,2.765,39,0,13.62-2.907,40.171-.114,55,0l32-1c7.984,1.656,23.018,1.711,31,0,10.3-2.208,28.144,2.543,40,0l13,1c17.716,0.6,31.479-.006,48,0,8.147,0,20.965.845,25-1,1.992-3.11,1-11.168,1-16,0-13.754,2.988-34.328-1-46-12.088,3.969-32.851,1-47,1H262ZM377,711H752c4.57-13.9,1-53.333,1-71V482h-1v-1c-10.795.952-24.923,0-39,0-9.216,0-17.16,1.3-25,0-13.173-2.188-27.23,2.8-38,0l-40,1c-10.2-2.309-23.412.164-34,0-9.03-.14-22.152-2.3-31,0-4.914,1.28-11.454-.68-15-1l-33,1c-8.543-.255-21.572-2.2-30,0l-19-1c-16.451-.266-29.49.006-45,0l-25,1c-2.177,3.522-1,12.692-1,18V711Z" transform="translate(-0.031 -0.125)"/>
</svg>
