<svg xmlns="http://www.w3.org/2000/svg" width="23" height="23" viewBox="0 0 1000 1000">
  <defs>
    <style>
      svg { cursor: pointer; }
      .cls-1 {
        fill: #ccc;
        fill-rule: evenodd;
      }
    </style>
  </defs>
  <path id="icon-settings" class="cls-1" d="M470,50c24.572-.441,60.977-2.884,82,2,38.841,9.023,74.78,12.277,108,26,120.383,49.73,205.206,130.612,256,250,9.382,22.051,16.9,46.928,24,72,5.154,18.215,4.676,38.138,9,57,3.022,13.182,2.925,60.05,0,73-3.984,17.635-.761,33.676-5,50-8.717,33.571-15.309,65.731-28,95C862.634,798.076,774.388,874.507,649,926c-25.107,10.311-53.683,13.15-82,20l-37,4c-10.225,2.329-51.092,1.015-60-1-17.574-3.975-33.638-.755-50-5-35.756-9.277-68.881-17.807-99-31C214.661,866.419,133.594,787.992,87,682c-8.419-19.151-13.1-37.849-20-59-6.255-19.163-8.928-41.494-14-63l-2-30c-2.837-13.18-2.968-46.861,0-60l2-30c7.311-31.014,9.842-61.846,21-89C125.726,225.124,201.405,137.615,325,84c29.252-12.689,61.422-19.353,95-28Zm5,25c-1.667,1.938-1.439,1.668-5,2-8.217,4.966-27.375-1.043-38,2-2.407.69-5.391,2.884-8,4-1.865,5.7-3.778,12.269-5,17v9c-4.708,14.8-10.129,33-15,47-2.692,7.738-2.536,18.426-7,24-4.193,5.235-33.812,12.674-42,17-21.384,11.3-54.313,29.337-70,46-17.268-2.993-33.912-6.326-48-12l-11-1c-12.444-4.532-23.955-11.473-40-12-6.732,9.565-16.535,18.112-23,28-13.115,20.059-23.078,40.85-35,62-7.533,13.364-19.146,27.662-21,46,17.993,16.425,37.374,34.349,52,54,4.444,5.97,13.913,11.257,15,20-4.462,6.271-1.67,12.539-4,22-3.994,16.218-5.094,40.416-4,60v30c1.844,7.935,4.779,18.338,5,28,0.16,6.983-12.331,13.666-16,18-11.008,13-22.972,27.09-36,38-5.493,4.6-14.063,9.055-15,18,3.695,5.112,3.07,11.98,6,18,1.353,2.78,5.647,7.356,7,10q0.5,3,1,6c0.455,0.635,2.555,1.038,3,2v4c1.693,3.287,6.167,7.679,8,11,6.957,12.606,11.832,24.606,19,37,1.456,2.518,5.685,5.564,7,8,5.4,10,18.164,37.7,30,39,4.887-6.322,15.491-5.046,24-8,20.926-7.264,45.063-12.732,69-17,3.678,4.24,9.4,6.623,14,10,7.286,5.35,14.317,13.072,22,18,23.082,14.8,48.388,25.824,76,36,11.847,21.959,16.882,51.936,25,77,2.709,8.365,2.138,16.265,5,24,7.8,3.822,22.576,4.358,34,5h16c31.107,7.364,69.54.313,102-2,1.411-1.864,5.02-3.067,6-5,3.255-6.424.568-12.323,3-20,5.065-15.99,9.918-35.611,15-51,2.87-8.689,1.936-17.688,7-24,3.744-4.666,8.761-2.265,15-5,3.6-1.577,10.12-6.491,14-8h5c2.7-1.253,7.318-5.669,10-7,24.536-12.181,50.113-24.163,68-43,19.431,3.348,40.47,6.494,58,13,12.437,4.615,25.383,11.463,41,12,3.148-4.894,8.618-8.461,12-13,7.395-9.927,12.031-20.608,19-31l4-3c7.954-14.7,14.21-28.879,23-43,7.83-12.578,19.185-28.522,21-46-18.072-16.476-37.306-34.268-52-54-4.54-6.1-13.878-10.935-15-20,4.4-6.269,1.791-12.578,4-22,3.523-15.023,6.715-41.063,4-59V461c-1.886-8.344-4.769-18.874-5-29-0.153-6.7,12.128-14.126,16-18,12.238-12.246,22.708-26.869,36-38,5.493-4.6,14.063-9.055,15-18-1.74-2.4-.518-4.619-2-8-3.84-8.76-11.43-19.833-15-28v-4c-1.336-2.616-5.4-6.423-7-9-5.113-8.219-7.154-16.634-12-25-2.705-4.67-8.473-10.227-11-15v-4c-2.468-4.562-8.539-9.363-11-14-4.338-8.173-13.055-26.764-23-28-5.11,6.511-16.6,4.5-25,8-20.193,8.421-44.792,11.063-68,17-3.727-4.267-9.257-6.669-14-10-4.127-2.9-7.657-8.376-12-11-16.691-10.084-33.382-21.353-51-30-9.415-4.621-31.78-8.46-37-16-3.373-4.886-2.707-9.541-5-16-4.967-13.994-10.991-31.253-15-46-3.443-12.666-3.819-24.677-8-36-11.345-5.263-17.368-1.068-31-4C527.567,74.39,501.425,75.039,475,75Zm4,140c87.464-1.561,151.76,22.083,197,63l4,1c4.145,2.884,7.771,6.805,12,10,14.25,10.766,27.809,29.865,38,45,1.62,2.4,5.523,4.583,7,7,1.81,2.963,1.205,5.025,3,8l4,3c5.042,8.674,7.119,16.925,12,26,1.6,2.968,5.753,7.655,7,11v6c8.294,18.174,13.411,38.426,19,60v18c3.639,14.693,3.787,39.344,0,54v19c-6.056,23.181-10.57,43.041-19,65-5.395,14.052-15.6,27.763-23,40-31.811,52.587-78.966,90.873-138,116h-6c-14.655,5.154-33.511,10.7-50,15H526c-1.9.473-6.1,2.509-8,3-12.443,3.219-37.673-.689-46-3H454c-3.206-.8-7.278-3.218-10-4H433c-15.554-5.322-33.031-11.1-47-18-7.883-3.894-14.813-4.548-22-9-68.432-42.391-114.322-93.724-138-178-7.163-25.494-16.792-69.646-8-101V454c4.729-18.142,8.406-37.909,15-55,27.318-70.8,80.258-125.514,146-158,4.943-2.443,9.653-1.935,15-4,7.311-2.823,17.29-8.16,25-11l11-1c0.54-.221,2.232-2.739,3-3h11c1.192-.339,4.008-2.66,5-3C458.207,215.847,472.211,220.211,479,215Zm4,38c-8.047,5.053-19.271,1.03-30,4-12.16,3.366-27.553,6.375-40,11-62.513,23.231-122.275,82.046-145,145v6c-0.3.84-2.7,2.374-3,3q-0.5,5-1,10c-1.9,4.874-5.6,14.849-7,20v12c-7.034,30.57-3.044,65.882,4,93,3.018,11.619,3.071,19.634,7,30,22.946,60.548,71.53,112.711,131,137,3.978,1.625,10.094,6.565,14,8h6c9.426,3.322,22.913,8.254,33,11l19,1c9.315,2.42,34.565,6.145,48,3,23.018-5.389,47.117-7.271,68-15,49.231-18.22,95.4-57.78,122-99q0.5-2.5,1-5c5.278-9.967,13.693-20.914,18-32v-5c0.549-1.18,3.449-2.5,4-4v-6c3.3-9.319,8.268-22.967,11-33V535c8.4-38.176,1.654-85.623-11-115v-7c-0.546-1.506-3.447-2.818-4-4v-5c-4.333-11.106-12.687-21.979-18-32q-0.5-2.5-1-5c-35.878-55.4-88.989-90.31-161-110H535C520.382,253.741,502.425,253.066,483,253Zm-6,105h46c52.633,13.3,89.1,40.065,108,87,7.623,18.933,11,32.626,11,61v18c-3.064,11.148-6.562,24.241-11,35-1.318,3.2-5.4,7.11-7,10-21.77,39.226-52.794,59.978-101,73-12.08,3.263-56.613-.931-64-4-0.553-.23-2.227-2.716-3-3-49.786-18.27-74.73-45.571-94-94q-0.5-6-1-12c-2.181-6.95-6.349-44.293-3-55,0.68-2.174,3.256-6.089,4-9v-7c14.209-33.88,31.858-60.059,62-78,2.435-1.449,5.48-5.783,8-7h5l2-3c5.707-3.356,10.143-2.584,17-5,0.754-.266,2.473-2.79,3-3C465.68,359.334,471.977,361.578,477,358Z" transform="translate(-0.031 -0.125)"/>
</svg>
