<svg xmlns="http://www.w3.org/2000/svg" width="23" height="23" viewBox="0 0 1000 1000">
  <defs>
    <style>
      svg { cursor: pointer; }
      .cls-1 {
        fill: #c1c1c1;
        fill-rule: evenodd;
      }
    </style>
  </defs>
  <path id="icon-date" class="cls-1" d="M564,159V139c5.421-18.939,30.547-30.2,50-16,9.142,6.676,10.441,19.482,10,36H730V139c5.421-18.939,30.547-30.2,50-16,9.142,6.676,10.441,19.482,10,36H910c11.6,2.938,23.749,9.557,30,18,10.95,14.789,10,37.485,10,64V861c0,15.977,3.48,39.133-1,53a52.84,52.84,0,0,1-35,35c-12.567,4.038-33.417,1-48,1H193c-18.893,0-44.9,2.961-59-3-40.308-17.037-30-73.582-30-129V464c-1.4-3.915-6.712-7.592-9-11-8.243-12.277-16.952-26.226-23-40-7-15.937-12.05-33.414-17-51l-5-33V299a214.164,214.164,0,0,1,17-85c33.393-79.053,83.006-126.453,168-154,24.614-7.977,78.049-15.913,111-8,48.144,11.561,84.256,26.223,118,51,9.6,7.049,17.633,16.629,26,25l10,9c2.158,2.861,14.477,21.2,16,22h48ZM293,100c-5.386,3.23-15.182.419-22,2-15.836,3.672-30.25,7.033-44,13-55.2,23.955-93.081,65.644-116,122-5.359,13.178-6.66,27.587-10,43-6.148,28.373,1.747,69.386,9,89,24.528,66.326,60.867,103.272,125,130,20.36,8.485,65.553,18.9,97,12l25-4c66.009-21.161,113.754-61.2,140-122,5.937-13.754,9.387-28.153,13-44,8.192-35.931-.616-81.187-11-106-27.655-66.079-71.161-107.389-142-130C338.76,99.178,315.585,100.039,293,100Zm8,42c14.226-.114,22.723,3.518,28,12,5.324,8.558,3,27.83,3,41v97c12.119,2.965,27.66,15.648,38,22,18.9,11.609,38.532,21.647,57,33,6.352,3.9,13.136,5.683,19,10,3.548,2.612,5,7.8,8,11q0.5,7.5,1,15c-3.314,11.706-17.212,25.853-35,19-8.172-3.148-16.671-10.481-24-15-12.875-7.939-26.119-13.094-39-21-16.637-10.211-34.34-20.789-51-31-8.84-5.418-18.672-9.363-23-19-3.448-7.677-2-21.358-2-32V217c0-16.373-3.4-49.1,2-61,2.8-6.161,9.395-8.616,14-13C299.328,142.805,299.826,142.807,301,142ZM154,900H900V209H790c0.656,29.427,1.786,44.012-18,54-3.633,1.834-10.994,4.811-18,3-23.647-6.111-24.683-26.315-24-57H624c0.656,29.427,1.786,44.012-18,54-3.633,1.834-10.994,4.811-18,3-23.647-6.111-24.683-26.315-24-57H543v1c7.053,7.8,7.644,22.7,11,34,17.1,57.591,4.233,122.959-15,167-32.362,74.108-88.551,118.507-171,143-30.377,9.024-82.182,12.4-116,3-23.9-6.645-48.608-13.221-68-25-9.426-5.725-19.364-15.42-30-19V900ZM740,394c32.713-.761,55.866-4.4,67,18,1.814,3.649,4.816,10.98,3,18-0.9,3.474-2.944,8.976-5,12-2.658,3.908-10.368,9.3-15,11-7.232,2.647-46.818,2.712-54,0-10.3-3.888-15.837-11.547-19-23-2.08-7.532-.3-16.712,3-22C724.884,400.167,732.416,399.227,740,394ZM570,509c32.713-.761,55.866-4.4,67,18,1.814,3.649,4.816,10.98,3,18-0.9,3.474-2.944,8.976-5,12-2.658,3.908-10.368,9.3-15,11-7.232,2.647-46.818,2.712-54,0-10.3-3.888-15.837-11.547-19-23-2.08-7.532-.3-16.712,3-22C554.884,515.167,562.416,514.227,570,509Zm167,0c32.713-.761,55.866-4.4,67,18,1.814,3.649,4.816,10.98,3,18-0.9,3.474-2.944,8.976-5,12-2.658,3.908-10.368,9.3-15,11-7.232,2.647-46.818,2.712-54,0-10.3-3.888-15.837-11.547-19-23-2.08-7.532-.3-16.712,3-22C721.884,515.167,729.416,514.227,737,509ZM237,624c32.713-.761,55.866-4.4,67,18,1.814,3.649,4.816,10.98,3,18-0.9,3.474-2.944,8.976-5,12-2.658,3.908-10.368,9.3-15,11-7.232,2.647-46.818,2.712-54,0-10.3-3.888-15.837-11.547-19-23-2.08-7.532-.3-16.712,3-22C221.884,630.167,229.416,629.227,237,624Zm166,0c32.713-.761,55.866-4.4,67,18,1.814,3.649,4.816,10.98,3,18-0.9,3.474-2.944,8.976-5,12-2.658,3.908-10.368,9.3-15,11-7.232,2.647-46.818,2.712-54,0-10.3-3.888-15.837-11.547-19-23-2.08-7.532-.3-16.712,3-22C387.884,630.167,395.416,629.227,403,624Zm170,0c32.713-.761,55.866-4.4,67,18,1.814,3.649,4.816,10.98,3,18-0.9,3.474-2.944,8.976-5,12-2.658,3.908-10.368,9.3-15,11-7.232,2.647-46.818,2.712-54,0-10.3-3.888-15.837-11.547-19-23-2.08-7.532-.3-16.712,3-22C557.884,630.167,565.416,629.227,573,624Zm167,0c32.713-.761,55.866-4.4,67,18,1.814,3.649,4.816,10.98,3,18-0.9,3.474-2.944,8.976-5,12-2.658,3.908-10.368,9.3-15,11-7.232,2.647-46.818,2.712-54,0-10.3-3.888-15.837-11.547-19-23-2.08-7.532-.3-16.712,3-22C724.884,630.167,732.416,629.227,740,624ZM237,739c32.713-.761,55.866-4.4,67,18,1.814,3.649,4.816,10.98,3,18-0.9,3.474-2.944,8.976-5,12-2.658,3.908-10.368,9.3-15,11-7.232,2.647-46.818,2.712-54,0-10.3-3.888-15.837-11.547-19-23-2.08-7.532-.3-16.712,3-22C221.884,745.167,229.416,744.227,237,739Zm166,0c32.713-.761,55.866-4.4,67,18,1.814,3.649,4.816,10.98,3,18-0.9,3.474-2.944,8.976-5,12-2.658,3.908-10.368,9.3-15,11-7.232,2.647-46.818,2.712-54,0-10.3-3.888-15.837-11.547-19-23-2.08-7.532-.3-16.712,3-22C387.884,745.167,395.416,744.227,403,739Zm170,0c32.713-.761,55.866-4.4,67,18,1.814,3.649,4.816,10.98,3,18-0.9,3.474-2.944,8.976-5,12-2.658,3.908-10.368,9.3-15,11-7.232,2.647-46.818,2.712-54,0-10.3-3.888-15.837-11.547-19-23-2.08-7.532-.3-16.712,3-22C557.884,745.167,565.416,744.227,573,739Zm167,0c32.713-.761,55.866-4.4,67,18,1.814,3.649,4.816,10.98,3,18-0.9,3.474-2.944,8.976-5,12-2.658,3.908-10.368,9.3-15,11-7.232,2.647-46.818,2.712-54,0-10.3-3.888-15.837-11.547-19-23-2.08-7.532-.3-16.712,3-22C724.884,745.167,732.416,744.227,740,739Z" transform="translate(-0.64 0.094)"/>
</svg>
