<svg xmlns="http://www.w3.org/2000/svg" width="23" height="23" viewBox="0 0 1000 1000">
  <defs>
    <style>
      svg { cursor: pointer; }
      .cls-1 {
        fill: #c1c1c1;
        fill-rule: evenodd;
      }
    </style>
  </defs>
  <path id="icon-app-search" class="cls-1" d="M586,265c-19.216-.183-34.137,3.407-51,4V163c0-21.889-1.456-45.063,4-62,4.19-13.008,13.016-27.58,23-35,25.066-18.629,54.03-18,98-18H827c47.109,0,85.205.366,105,27,23.9,32.157,18,89.407,18,145V346c0,26.9,1.324,54.185-7,73-11.29,25.521-37.854,43.269-74,44a309.149,309.149,0,0,0-25-51h36c7.16-6.666,15.613-8.305,19-19V181c0-23.129,5.6-65.619-8-76-12.74-9.727-44.175-6-66-6H661c-22.038,0-59.176-4.867-69,8-7.789,10.2-6,29.862-6,48V265ZM124,49H336c48.766,0,89.479-.6,110,27,8.127,10.932,13.19,23.512,17,39,4.019,16.337,1,38.876,1,57V288c-9.594,5.053-20.627,8.3-30,14-6.613,4.02-13.338,10.392-21,13V119c-6.667-7.161-8.305-15.612-19-19H182c-23.129,0-65.619-5.6-76,8-9.727,12.74-6,44.175-6,66V338c0,22.039-4.866,59.175,8,69,12.037,9.192,40.17,6,61,6H318v1c-8.368,8.921-15.009,25.412-20,37-1.514,3.516-1.8,11.4-5,13H124c-5.787-3.547-23.658-3.753-31-7-15.057-6.659-27.993-21.111-36-35-11.42-19.81-8-56.787-8-87V177c0-29.938-2.321-62.913,7-84,6.536-14.786,22.2-30.482,37-37C100.312,52.78,118.264,52.528,124,49ZM564,315c134.274-2.711,216.984,67.489,256,160,12.132,28.766,28.538,90.577,18,134-7.841,32.308-13.812,64.03-29,89-4.1,6.745-8.327,14.352-13,21-3.684,5.241-9.669,9.413-12,16,10.275,6.748,18.363,18.369,27,27,16.84,16.829,34.165,33.166,51,50l82,81c10.263,14.278,6.148,39.245-6,48-25.143,18.119-46.12-4.119-59-17l-67-68c-13.446-13.446-28.444-25.7-40-41-9.762-12.924-25.981-21.338-35-35h-1v1c-5.711,2.821-9.926,7.628-15,11a228.109,228.109,0,0,1-33,18c-27.969,12.238-55.537,14.374-89,22-9.455,2.155-27.1.8-35-1l-24-2c-19.715-5.09-40.163-9.849-57-17-61.922-26.3-111.338-70.9-138-132-6.619-15.168-9.123-29.45-14-47-6.659-23.963-13.287-64.771-6-95,4.5-18.685,7.008-39.016,14-56,26.583-64.568,72.751-117.394,136-145,18.394-8.028,39.244-12.4,60-18Zm5,50c-5.094,3.054-14.6.5-21,2-15.058,3.534-29.775,6.308-43,12-56.842,24.463-96.475,65.212-120,123-4.792,11.771-6.991,24.952-10,38-7.206,31.242-.516,72.864,8,96,23.012,62.517,58.387,103.263,118,129a272.34,272.34,0,0,0,47,15l21,1c5.584,1.189,17.856,2.549,25,1,13.685-2.968,28.343-1.926,41-6,67.459-21.714,114.289-63.6,141-126,5.662-13.228,8.523-27.933,12-43,7.586-32.87-.157-75.073-9-99-25.76-69.7-71.894-113.885-144-137C616.047,364.924,592.929,365.048,569,365ZM276,535c-0.591,15.988-2.895,32.3-3,51H152c-17.876,0-38.264-2.134-46,8-9.726,12.74-6,44.175-6,66V824c0,22.036-4.867,59.179,8,69,12.6,9.619,43.371,6,65,6H336c22.4,0,55.864,4.059,69-6,11.879-9.1,8.17-40.329,8-61h2c7.376,8.927,24.371,15.7,35,21,3.566,1.779,12.324,2.607,14,6v16c-3.55,5.8-3.75,23.653-7,31-6.66,15.057-21.11,27.993-35,36-20.715,11.941-60.536,8-92,8H172c-47.11,0-85.2-.366-105-27-18.629-25.065-18-54.032-18-98V658c0-47.112.367-85.2,27-105,10.932-8.127,23.511-13.19,39-17,15.226-3.745,36.052-1,53-1H276Z" transform="translate(0.422 0.688)"/>
</svg>
