<svg xmlns="http://www.w3.org/2000/svg" width="23" height="23" viewBox="0 0 1000 1000">
  <defs>
    <style>
      svg { cursor: pointer; }
      .cls-1 {
        fill: #ccc;
        fill-rule: evenodd;
      }
    </style>
  </defs>
  <path id="icon-user" class="cls-1" d="M463,50h73c33.663,6.666,70.337,9.334,101,20-1.791-.758,137.291,33.924,234,175,140.1,204.371,79,470.047-87,605-72.468,58.915-143.134,82.891-241,98-88.279,13.629-163.84-13.184-216-33C134.473,841.859-25.819,586.722,89,315c29.723-70.341,78.819-122.153,130-168,25.207-19.019,82.67-58.243,138-75A613.472,613.472,0,0,1,463,50Zm22,139c-63.244,11.2-116.88,34.179-147,110-51.188,128.855,69.667,250.8,173,235C736.789,499.48,725.412,186.3,485,189ZM373,604l-67,7c-51.564,17.516-88.925,39.157-130,81,5.83,35.928,103.7,119.13,139,139,170.866,96.183,417.434,40.274,509-134-2.449-14.873-17.91-26.121-28-34C698.944,587.212,564.513,602.857,373,604Z" transform="translate(0.328 -0.86)"/>
</svg>
