<svg xmlns="http://www.w3.org/2000/svg" width="23" height="23" viewBox="0 0 1000 1000">
  <defs>
    <style>
      svg { cursor: pointer; }
      .cls-1 {
        fill: #ccc;
        fill-rule: evenodd;
      }
    </style>
  </defs>
  <path id="icon-html" class="cls-1" d="M470,50c76.03-1.012,136.392,7.247,190,28,195.87,75.826,371.19,323.788,256,597C850.6,830.134,725.213,923.015,530,950c-49.149,6.794-101.624-3.291-138-13C195.233,884.484,80.649,751.192,51,530c-8.709-64.971,5.519-132.793,23-179C124.814,216.682,222.217,113.746,363,70,395.813,59.8,433.268,60.968,470,50ZM410,230L134,441q0.5,59.994,1,120L410,769q0.5-81.492,1-163L256,501v-1L411,394Q410.5,312.009,410,230Zm177,1V394L742,499v1L587,606q0.5,81.991,1,164l1-1L864,559q-0.5-59.994-1-120Z" transform="translate(-0.547 -1.063)"/>
</svg>
