<svg xmlns="http://www.w3.org/2000/svg" width="25" height="25" viewBox="0 0 1000 1000">
  <defs>
    <style>
      .cls-1 {
        fill: #ccc;
        fill-rule: evenodd;
      }
    </style>
  </defs>
  <path id="icon-arrow-double" class="cls-1" d="M48,50H264.52L498,283l3.991-1Q617.726,166.011,733.48,50L950,51l-1,1C799.682,201.318,649.321,350.682,500,500h0C350.347,350.348,197.653,199.652,48,50ZM951,190c0.665,101.323-1.661,206.677-1,308C801.016,648.318,648.988,797.682,500,948c-1-.333,1,0.333,0,0C351.014,798.348,198.988,645.652,50,496c0.333-101.323-.333-203.677,0-305h0C198.655,340.652,351.345,494.348,500,644h0C648.323,494.015,802.677,339.985,951,190Z" transform="translate(0.438 0.953)"/>
</svg>
