<svg xmlns="http://www.w3.org/2000/svg" width="23" height="23" viewBox="0 0 1000 1000">
  <defs>
    <style>
      svg { cursor: pointer; }
      .cls-1 {
        fill: #ccc;
        fill-rule: evenodd;
      }
    </style>
  </defs>
  <path id="icon-support" class="cls-1" d="M500,50c252.068,6.224,423.1,185.386,448,412H739Q680.007,310.515,621,159c-42.662,150.318-86.338,292.682-129,443C427.825,459.333,363.509,321,362,321L270,460H51v-1C76.947,218.37,272.72,52.3,500,50ZM948,536c-8.024,197.523-189.433,411.488-447,413C293.2,950.22,67.625,785.9,51,531H305l48-69h2c48.329,109.322,100.671,231.678,149,341,42.662-146.985,81.338-307.015,124-454l74,187H948Z" transform="translate(0.5 0.5)"/>
</svg>
