<svg xmlns="http://www.w3.org/2000/svg" width="1000" height="1000" viewBox="0 0 1000 1000">
  <defs>
    <style>
      svg { cursor: pointer; }
      .cls-1 {
        fill: #ccc;
        fill-rule: evenodd;
      }
    </style>
  </defs>
  <path id="icon-menu" class="cls-1" d="M470,50c24.572-.441,60.977-2.884,82,2,38.841,9.023,74.78,12.277,108,26,120.383,49.73,205.206,130.612,256,250,9.382,22.051,16.9,46.928,24,72,5.154,18.215,4.676,38.138,9,57,3.022,13.182,2.925,60.05,0,73-3.984,17.635-.761,33.676-5,50-8.717,33.571-15.309,65.731-28,95C862.634,798.076,774.388,874.507,649,926c-25.107,10.311-53.683,13.15-82,20l-37,4c-10.225,2.329-51.092,1.015-60-1-17.574-3.975-33.638-.755-50-5-35.756-9.277-68.881-17.807-99-31C214.661,866.419,133.594,787.992,87,682c-8.419-19.151-13.1-37.849-20-59-6.255-19.163-8.928-41.494-14-63l-2-30c-2.837-13.18-2.968-46.861,0-60l2-30c7.311-31.014,9.842-61.846,21-89C125.726,225.124,201.405,137.615,325,84c29.252-12.689,61.422-19.353,95-28ZM244,275V375H344V275H244Zm150,0V375H794V275H394ZM246,450V550H346V450H246Zm150,0V550H796V450H396ZM246,625V725H346V625H246Zm150,0V725H796V625H396Z" transform="translate(-0.031 -0.125)"/>
</svg>
